<svg width="33" height="32" viewBox="0 0 33 32" fill="none" xmlns="http://www.w3.org/2000/svg">
<rect width="33" height="32" fill="#6F6F6F"/>
<g id="WEB">
<path d="M-9600 -2280C-9600 -2281.1 -9599.1 -2282 -9598 -2282H9909C9910.1 -2282 9911 -2281.1 9911 -2280V2856C9911 2857.1 9910.1 2858 9909 2858H-9598C-9599.1 2858 -9600 2857.1 -9600 2856V-2280Z" fill="#404040"/>
<g id="Main flow">
<path d="M-9061 -456C-9061 -457.105 -9060.1 -458 -9059 -458H2773C2774.1 -458 2775 -457.105 2775 -456V1780C2775 1781.1 2774.1 1782 2773 1782H-9059C-9060.1 1782 -9061 1781.1 -9061 1780V-456Z" fill="#404040"/>
<g id="Your Recording is Ready (1440)">
<g clip-path="url(#clip0_190_2117)">
<path d="M-453 -366C-453 -372.627 -447.627 -378 -441 -378H976C982.627 -378 988 -372.627 988 -366V1584C988 1590.63 982.627 1596 976 1596H-441C-447.627 1596 -453 1590.63 -453 1584V-366Z" fill="white"/>
<g id="top content">
<g id="top">
<g id="Frame 1000002524">
<g id="Frame 1000002523">
<g id="Frame 1000002522">
<g id="content">
<g id="details">
<g id="Frame 1000002439">
<g id="edit">
<g id="vuesax/linear/edit">
<g id="edit_2">
<path id="Vector" d="M15.167 2.66675H12.5003C5.83366 2.66675 3.16699 5.33341 3.16699 12.0001V20.0001C3.16699 26.6667 5.83366 29.3334 12.5003 29.3334H20.5003C27.167 29.3334 29.8337 26.6667 29.8337 20.0001V17.3334" stroke="#120B48" stroke-width="1.5" stroke-linecap="round" stroke-linejoin="round"/>
<path id="Vector_2" d="M21.8865 4.02676L11.3798 14.5334C10.9798 14.9334 10.5798 15.7201 10.4998 16.2934L9.92651 20.3068C9.71317 21.7601 10.7398 22.7734 12.1932 22.5734L16.2065 22.0001C16.7665 21.9201 17.5532 21.5201 17.9665 21.1201L28.4732 10.6134C30.2865 8.80009 31.1398 6.69343 28.4732 4.02676C25.8065 1.36009 23.6998 2.21343 21.8865 4.02676Z" stroke="#120B48" stroke-width="1.5" stroke-miterlimit="10" stroke-linecap="round" stroke-linejoin="round"/>
<path id="Vector_3" d="M20.3799 5.53345C21.2732 8.72011 23.7666 11.2134 26.9666 12.1201" stroke="#120B48" stroke-width="1.5" stroke-miterlimit="10" stroke-linecap="round" stroke-linejoin="round"/>
</g>
</g>
</g>
</g>
</g>
</g>
</g>
</g>
</g>
</g>
</g>
</g>
</g>
<path d="M-9059 -457H2773V-459H-9059V-457ZM2774 -456V1780H2776V-456H2774ZM2773 1781H-9059V1783H2773V1781ZM-9060 1780V-456H-9062V1780H-9060ZM-9059 1781C-9059.55 1781 -9060 1780.55 -9060 1780H-9062C-9062 1781.66 -9060.66 1783 -9059 1783V1781ZM2774 1780C2774 1780.55 2773.55 1781 2773 1781V1783C2774.66 1783 2776 1781.66 2776 1780H2774ZM2773 -457C2773.55 -457 2774 -456.552 2774 -456H2776C2776 -457.657 2774.66 -459 2773 -459V-457ZM-9059 -459C-9060.66 -459 -9062 -457.657 -9062 -456H-9060C-9060 -456.552 -9059.55 -457 -9059 -457V-459Z" fill="white" fill-opacity="0.1"/>
</g>
<path d="M-9598 -2281H9909V-2283H-9598V-2281ZM9910 -2280V2856H9912V-2280H9910ZM9909 2857H-9598V2859H9909V2857ZM-9599 2856V-2280H-9601V2856H-9599ZM-9598 2857C-9598.55 2857 -9599 2856.55 -9599 2856H-9601C-9601 2857.66 -9599.66 2859 -9598 2859V2857ZM9910 2856C9910 2856.55 9909.55 2857 9909 2857V2859C9910.66 2859 9912 2857.66 9912 2856H9910ZM9909 -2281C9909.55 -2281 9910 -2280.55 9910 -2280H9912C9912 -2281.66 9910.66 -2283 9909 -2283V-2281ZM-9598 -2283C-9599.66 -2283 -9601 -2281.66 -9601 -2280H-9599C-9599 -2280.55 -9598.55 -2281 -9598 -2281V-2283Z" fill="white" fill-opacity="0.1"/>
</g>
<defs>
<clipPath id="clip0_190_2117">
<path d="M-453 -366C-453 -372.627 -447.627 -378 -441 -378H976C982.627 -378 988 -372.627 988 -366V1584C988 1590.63 982.627 1596 976 1596H-441C-447.627 1596 -453 1590.63 -453 1584V-366Z" fill="white"/>
</clipPath>
</defs>
</svg>
