<svg width="41" height="40" viewBox="0 0 41 40" fill="none" xmlns="http://www.w3.org/2000/svg">
<rect width="41" height="40" fill="#6F6F6F"/>
<g id="WEB">
<path d="M-9287 -3637C-9287 -3638.1 -9286.1 -3639 -9285 -3639H10222C10223.1 -3639 10224 -3638.1 10224 -3637V1499C10224 1500.1 10223.1 1501 10222 1501H-9285C-9286.1 1501 -9287 1500.1 -9287 1499V-3637Z" fill="#404040"/>
<g id="Main flow">
<path d="M-8748 -1813C-8748 -1814.1 -8747.1 -1815 -8746 -1815H3086C3087.1 -1815 3088 -1814.1 3088 -1813V423C3088 424.105 3087.1 425 3086 425H-8746C-8747.1 425 -8748 424.105 -8748 423V-1813Z" fill="#404040"/>
<g id="Your Recording is Ready (1440)">
<g clip-path="url(#clip0_190_2117)">
<path d="M-140 -1723C-140 -1729.63 -134.627 -1735 -128 -1735H1289C1295.63 -1735 1301 -1729.63 1301 -1723V227C1301 233.627 1295.63 239 1289 239H-128C-134.627 239 -140 233.627 -140 227V-1723Z" fill="white"/>
<g id="Frame 1000002614">
<rect width="1440" height="347" transform="translate(-139.5 -108)" fill="#120B48"/>
<g id="Frame 1000002580">
<g id="Frame 246">
<g id="Frame 1000002536">
<g id="iCON 7 1" clip-path="url(#clip1_190_2117)">
<g id="Layer 2">
<g id="Layer 1">
<path id="Vector" d="M31.6401 16.8422C31.0804 14.9123 30.0621 13.1465 28.6721 11.6954C27.2821 10.2443 25.5617 9.15104 23.6577 8.50888C21.7766 7.96133 19.7993 7.82678 17.8614 8.11444C15.9234 8.40211 14.0705 9.10519 12.4296 10.1755C12.2946 10.3109 12.1252 10.4068 11.9398 10.4532C11.7544 10.4996 11.5598 10.4945 11.377 10.4387C11.0084 10.3193 10.6763 10.108 10.4121 9.82467C10.2197 9.47756 10.1575 9.0732 10.2366 8.68432C10.2869 8.49766 10.3751 8.3234 10.4959 8.17245C10.6167 8.0215 10.7673 7.89713 10.9384 7.80712C15.5875 5.08782 20.1489 4.38607 24.5349 5.78958C26.6942 6.5078 28.6656 7.69977 30.3047 9.27823C31.9439 10.8567 33.2094 12.7817 34.0085 14.9124H39.8857C38.684 10.172 35.7871 6.03622 31.7427 3.28695C27.6983 0.537687 22.7868 -0.634505 17.9368 -0.00799665C13.0868 0.618511 8.63434 3.0003 5.42135 6.68704C2.20837 10.3738 0.457493 15.11 0.499772 20.0001C0.499772 20.7896 0.587491 21.4913 0.587491 22.2808H8.04363C8.32839 22.2647 8.61069 22.3415 8.84801 22.4997C9.08532 22.6579 9.26481 22.8889 9.35942 23.158C9.93235 25.0812 10.9553 26.8403 12.3434 28.2895C13.7316 29.7387 15.445 30.8363 17.3419 31.4913C19.223 32.0389 21.2002 32.1734 23.1382 31.8858C25.0761 31.5981 26.929 30.895 28.5699 29.8247C28.705 29.6894 28.8743 29.5934 29.0597 29.547C29.2452 29.5007 29.4398 29.5057 29.6226 29.5615C29.9911 29.6809 30.3232 29.8922 30.5875 30.1755C30.7799 30.5227 30.8421 30.927 30.7629 31.3159C30.7127 31.5026 30.6244 31.6768 30.5036 31.8278C30.3829 31.9787 30.2323 32.1031 30.0612 32.1931C27.417 33.9723 24.3008 34.9193 21.1138 34.9124C19.5386 34.9005 17.9732 34.6642 16.4647 34.2106C14.2963 33.5096 12.3162 32.3236 10.6747 30.7429C9.03315 29.1622 7.77338 27.2282 6.991 25.0878H1.20153C2.46964 29.7502 5.38277 33.796 9.40243 36.4771C13.4221 39.1583 18.2765 40.2936 23.0683 39.6732C27.8601 39.0529 32.2653 36.7188 35.4696 33.1023C38.674 29.4859 40.4608 24.8317 40.4998 20.0001C40.5161 19.268 40.4868 18.5356 40.4121 17.8071H33.0436C32.7445 17.7874 32.4563 17.6873 32.2093 17.5175C31.9623 17.3477 31.7657 17.1144 31.6401 16.8422Z" fill="white"/>
<path id="Vector_2" d="M20.5841 28.7496C22.311 28.733 23.9944 28.2057 25.4222 27.2342C26.8501 26.2627 27.9585 24.8904 28.6078 23.2902C29.2572 21.6899 29.4185 19.9333 29.0715 18.2416C28.7244 16.5498 27.8845 14.9986 26.6575 13.7833C25.4305 12.568 23.8713 11.7429 22.1763 11.4121C20.4813 11.0812 18.7263 11.2593 17.1324 11.924C15.5384 12.5887 14.1768 13.7102 13.219 15.1472C12.2612 16.5843 11.7501 18.2726 11.75 19.9996C11.7499 21.1558 11.979 22.3005 12.424 23.3676C12.869 24.4347 13.521 25.4031 14.3425 26.2167C15.1639 27.0303 16.1385 27.6731 17.2098 28.1078C18.2811 28.5426 19.428 28.7607 20.5841 28.7496Z" fill="#120B48"/>
</g>
</g>
</g>
</g>
</g>
</g>
</g>
</g>
</g>
<path d="M-8746 -1814H3086V-1816H-8746V-1814ZM3087 -1813V423H3089V-1813H3087ZM3086 424H-8746V426H3086V424ZM-8747 423V-1813H-8749V423H-8747ZM-8746 424C-8746.55 424 -8747 423.552 -8747 423H-8749C-8749 424.657 -8747.66 426 -8746 426V424ZM3087 423C3087 423.552 3086.55 424 3086 424V426C3087.66 426 3089 424.657 3089 423H3087ZM3086 -1814C3086.55 -1814 3087 -1813.55 3087 -1813H3089C3089 -1814.66 3087.66 -1816 3086 -1816V-1814ZM-8746 -1816C-8747.66 -1816 -8749 -1814.66 -8749 -1813H-8747C-8747 -1813.55 -8746.55 -1814 -8746 -1814V-1816Z" fill="white" fill-opacity="0.1"/>
</g>
<path d="M-9285 -3638H10222V-3640H-9285V-3638ZM10223 -3637V1499H10225V-3637H10223ZM10222 1500H-9285V1502H10222V1500ZM-9286 1499V-3637H-9288V1499H-9286ZM-9285 1500C-9285.55 1500 -9286 1499.55 -9286 1499H-9288C-9288 1500.66 -9286.66 1502 -9285 1502V1500ZM10223 1499C10223 1499.55 10222.6 1500 10222 1500V1502C10223.7 1502 10225 1500.66 10225 1499H10223ZM10222 -3638C10222.6 -3638 10223 -3637.55 10223 -3637H10225C10225 -3638.66 10223.7 -3640 10222 -3640V-3638ZM-9285 -3640C-9286.66 -3640 -9288 -3638.66 -9288 -3637H-9286C-9286 -3637.55 -9285.55 -3638 -9285 -3638V-3640Z" fill="white" fill-opacity="0.1"/>
</g>
<defs>
<clipPath id="clip0_190_2117">
<path d="M-140 -1723C-140 -1729.63 -134.627 -1735 -128 -1735H1289C1295.63 -1735 1301 -1729.63 1301 -1723V227C1301 233.627 1295.63 239 1289 239H-128C-134.627 239 -140 233.627 -140 227V-1723Z" fill="white"/>
</clipPath>
<clipPath id="clip1_190_2117">
<rect width="40" height="40" fill="white" transform="translate(0.5)"/>
</clipPath>
</defs>
</svg>
